{"title":"Cold.Creek.Manor.DIVX.2003.La.Vela.avi","uid":4997672,"size":1463412872,"categoryP":"video","categoryS":"movies","magnet":"?xt=urn:btih:4002c8131807eaef596420994a297963c20aa388&amp;dn=Cold.Creek.Manor.DIVX.2003.La.Vela.avi&amp;tr=udp%3A%2F%2Ftracker.openbittorrent.com%3A80&amp;tr=udp%3A%2F%2Fopen.demonii.com%3A1337&amp;tr=udp%3A%2F%2Ftracker.coppersurfer.tk%3A6969&amp;tr=udp%3A%2F%2Fexodus.desync.com%3A6969","seeders":0,"leechers":1,"uploader":"headdock","files":5,"time":1247355366,"description":"Plot:\n\n\nWanting to escape city life for the countryside, New Yorkers Cooper Tilson (Quaid), his wife Leah (Stone) and their two children move into a dilapidated old mansion still filled with the possessions of the previous family. Turning it into their dream house soon becomes a living nightmare when the previous owner (Dorff) shows up, and a series of terrifying incidents lead them on a spine-tingling search for clues to the estate's dark and lurid past...\n\n\n\nGeneral\n\n\nComplete name                    : Cold.Creek.Manor.DIVX.2003.La.Vela.avi\n\nImdb                             : http://www.imdb.com/title/tt0331468/\nLanguage                         : English\nSubtitles                        : N/A\nFormat                           : AVI\nFormat/Info                      : Audio Video Interleave\nFormat profile                   : OpenDML\nFile size                        : 1.36 GiB\nDuration                         : 5h 25mn\nOverall bit rate                 : 600 Kbps\nWriting application              : Lavf51.12.1\n\nVideo\nFormat                           : MPEG-4 Visual\nFormat profile                   : Simple@L1\nFormat settings, BVOP            : No\nFormat settings, QPel            : No\nFormat settings, GMC             : No warppoints\nFormat settings, Matrix          : Default\nCodec ID                         : DX50\nCodec ID/Hint                    : DivX 5\nDuration                         : 5h 25mn\nBit rate                         : 548 Kbps\nWidth                            : 720 pixels\nHeight                           : 480 pixels\nDisplay aspect ratio             : 1.500\nFrame rate                       : 23.976 fps\nStandard                         : NTSC\nResolution                       : 24 bits\nColorimetry                      : 4:2:0\nScan type                        : Progressive\nBits/(Pixel*Frame)               : 0.066\nStream size                      : 1.24 GiB (91%)\nWriting library                  : Lavc51.40.4\n\nAudio\nFormat                           : MPEG Audio\nFormat version                   : Version 1\nFormat profile                   : Layer 3\nCodec ID                         : 55\nCodec ID/Hint                    : MP3\nDuration                         : 1h 58mn\nBit rate mode                    : Constant\nBit rate                         : 128 Kbps\nChannel(s)                       : 2 channels\nSampling rate                    : 48.0 KHz\nResolution                       : 16 bits\nStream size                      : 109 MiB (8%)\nAlignment                        : Aligned on interleaves\nInterleave, duration             : 24 ms (0.58 video frame)\nInterleave, preload duration     : 24 ms\nWriting library                  : LAME3.97\n\n","torrent":{"xt":"urn:btih:4002c8131807eaef596420994a297963c20aa388","amp;dn":"Cold.Creek.Manor.DIVX.2003.La.Vela.avi","amp;tr":["udp%3A%2F%2Ftracker.openbittorrent.com%3A80","udp%3A%2F%2Fopen.demonii.com%3A1337","udp%3A%2F%2Ftracker.coppersurfer.tk%3A6969","udp%3A%2F%2Fexodus.desync.com%3A6969"],"infoHash":"4002c8131807eaef596420994a297963c20aa388","infoHashBuffer":{"type":"Buffer","data":[64,2,200,19,24,7,234,239,89,100,32,153,74,41,121,99,194,10,163,136]},"announce":[],"urlList":[]}}